<?xml version="1.0" encoding="UTF-8"?>
<svg width="24px" height="24px" viewBox="0 0 24 24" version="1.1" xmlns="http://www.w3.org/2000/svg" xmlns:xlink="http://www.w3.org/1999/xlink">
    <!-- Generator: Sketch 56.3 (81716) - https://sketch.com -->
    <title>icon-5</title>
    <desc>Created with Sketch.</desc>
    <defs>
        <path d="M14.1711479,11.0433091 C15.0435694,11.8144711 15.2829427,13.117624 14.6782032,14.1650635 C13.9878473,15.3607951 12.4588713,15.770483 11.2631397,15.080127 L1.73686028,9.58012702 C0.54112872,8.88977108 0.131440832,7.36079507 0.82179677,6.16506351 C1.42653625,5.11762401 2.67478642,4.67335097 3.77884305,5.04330911 L4.80384758,3.26794919 C6.46070183,0.398193452 10.1302443,-0.58505748 13,1.07179677 C15.8697557,2.72865102 16.8530067,6.39819345 15.1961524,9.26794919 L14.1711479,11.0433091 Z M4.26794919,12.1961524 L7.73205081,14.1961524 C7.17976606,15.1527377 5.95658525,15.480488 5,14.9282032 C4.04341475,14.3759185 3.71566444,13.1527377 4.26794919,12.1961524 Z M13.0980762,6.90192379 C13.5763688,7.17806616 14.1879592,7.01419101 14.4641016,6.53589838 C14.740244,6.05760576 14.5763688,5.44601536 14.0980762,5.16987298 C13.6197836,4.89373061 13.0081932,5.05760576 12.7320508,5.53589838 C12.4559084,6.01419101 12.6197836,6.62578141 13.0980762,6.90192379 Z" id="path-1"></path>
    </defs>
    <g id="icon-5" stroke="none" stroke-width="1" fill="none" fill-rule="evenodd">
        <g id="color/black" transform="translate(3.000000, 4.000000)">
            <mask id="mask-2" fill="white">
                <use xlink:href="#path-1"></use>
            </mask>
            <use id="Mask" fill="#000000" xlink:href="#path-1"></use>
            <g mask="url(#mask-2)" fill="#000000" id="Rectangle">
                <g transform="translate(-3.000000, -4.000000)">
                    <rect x="0" y="0" width="24" height="24"></rect>
                </g>
            </g>
        </g>
    </g>
</svg>