<?xml version="1.0" encoding="UTF-8"?>
<svg width="24px" height="24px" viewBox="0 0 24 24" version="1.1" xmlns="http://www.w3.org/2000/svg" xmlns:xlink="http://www.w3.org/1999/xlink">
    <!-- Generator: Sketch 56.3 (81716) - https://sketch.com -->
    <title>icon-10</title>
    <desc>Created with Sketch.</desc>
    <defs>
        <path d="M6,16 C2.6862915,16 0,13.3137085 0,10 C0,7.790861 2,4.45752767 6,2.84217094e-14 C10,4.45752767 12,7.790861 12,10 C12,13.3137085 9.3137085,16 6,16 Z" id="path-1"></path>
    </defs>
    <g id="icon-10" stroke="none" stroke-width="1" fill="none" fill-rule="evenodd">
        <g id="color/black" transform="translate(6.000000, 4.000000)">
            <mask id="mask-2" fill="white">
                <use xlink:href="#path-1"></use>
            </mask>
            <use id="Mask" fill="#000000" fill-rule="nonzero" xlink:href="#path-1"></use>
            <g mask="url(#mask-2)" fill="#000000" id="Rectangle">
                <g transform="translate(-6.000000, -4.000000)">
                    <rect x="0" y="0" width="24" height="24"></rect>
                </g>
            </g>
        </g>
        <path d="M14,16 C13.4477153,16 13,15.5522847 13,15 C13,14.4477153 13.4477153,14 14,14 C14.5522847,14 15,14.4477153 15,15 C15,15.5522847 14.5522847,16 14,16 Z" id="Path" fill="#FFFFFF" fill-rule="nonzero"></path>
    </g>
</svg>