<?xml version="1.0" encoding="UTF-8"?>
<svg width="24px" height="24px" viewBox="0 0 24 24" version="1.1" xmlns="http://www.w3.org/2000/svg" xmlns:xlink="http://www.w3.org/1999/xlink">
    <!-- Generator: Sketch 56.3 (81716) - https://sketch.com -->
    <title>icon-2</title>
    <desc>Created with Sketch.</desc>
    <defs>
        <path d="M17,6 L18,6 C19.1045695,6 20,6.8954305 20,8 L20,18 C20,19.1045695 19.1045695,20 18,20 L6,20 C4.8954305,20 4,19.1045695 4,18 L4,8 C4,6.8954305 4.8954305,6 6,6 L7,6 L7,5 C7,4.44771525 7.44771525,4 8,4 C8.55228475,4 9,4.44771525 9,5 L9,6 L15,6 L15,5 C15,4.44771525 15.4477153,4 16,4 C16.5522847,4 17,4.44771525 17,5 L17,6 Z M6,8 L6,18 L18,18 L18,8 L6,8 Z M8,14 L9,14 C9.55228475,14 10,14.4477153 10,15 L10,16 C10,16.5522847 9.55228475,17 9,17 L8,17 C7.44771525,17 7,16.5522847 7,16 L7,15 C7,14.4477153 7.44771525,14 8,14 Z M12,14 L16,14 C16.5522847,14 17,14.4477153 17,15 L17,16 C17,16.5522847 16.5522847,17 16,17 L12,17 C11.4477153,17 11,16.5522847 11,16 L11,15 C11,14.4477153 11.4477153,14 12,14 Z M8,9 L16,9 C16.5522847,9 17,9.44771525 17,10 L17,12 C17,12.5522847 16.5522847,13 16,13 L8,13 C7.44771525,13 7,12.5522847 7,12 L7,10 C7,9.44771525 7.44771525,9 8,9 Z" id="path-1"></path>
    </defs>
    <g id="icon-2" stroke="none" stroke-width="1" fill="none" fill-rule="evenodd">
        <mask id="mask-2" fill="white">
            <use xlink:href="#path-1"></use>
        </mask>
        <use id="Mask" fill="#191919" fill-rule="nonzero" xlink:href="#path-1"></use>
    </g>
</svg>