<?xml version="1.0" encoding="UTF-8"?>
<svg width="24px" height="24px" viewBox="0 0 24 24" version="1.1" xmlns="http://www.w3.org/2000/svg" xmlns:xlink="http://www.w3.org/1999/xlink">
    <!-- Generator: Sketch 56.3 (81716) - https://sketch.com -->
    <title>icon-17</title>
    <desc>Created with Sketch.</desc>
    <g id="icon-17" stroke="none" stroke-width="1" fill="none" fill-rule="evenodd">
        <path d="M10,12.5351288 L10,6 C10,4.8954305 10.8954305,4 12,4 C13.1045695,4 14,4.8954305 14,6 L14,12.5351288 C15.1956027,13.2267476 16,14.5194353 16,16 C16,18.209139 14.209139,20 12,20 C9.790861,20 8,18.209139 8,16 C8,14.5194353 8.80439726,13.2267476 10,12.5351288 Z M11.5,14.0630087 C10.6373864,14.2850301 10,15.0680803 10,16 C10,17.1045695 10.8954305,18 12,18 C13.1045695,18 14,17.1045695 14,16 C14,15.0680803 13.3626136,14.2850301 12.5,14.0630087 L12.5,6.5 C12.5,6.22385763 12.2761424,6 12,6 C11.7238576,6 11.5,6.22385763 11.5,6.5 L11.5,14.0630087 Z" id="Combined-Shape" fill="#000000"></path>
    </g>
</svg>