<?xml version="1.0" encoding="UTF-8"?>
<svg width="24px" height="24px" viewBox="0 0 24 24" version="1.1" xmlns="http://www.w3.org/2000/svg" xmlns:xlink="http://www.w3.org/1999/xlink">
    <!-- Generator: Sketch 56.3 (81716) - https://sketch.com -->
    <title>icon-12</title>
    <desc>Created with Sketch.</desc>
    <defs>
        <path d="M5.00942135,9.22763849 C4.47755118,9.70771151 3.77290941,10 3,10 C1.34314575,10 0,8.65685425 0,7 C0,5.34314575 1.34314575,4 3,4 C3.77303044,4 4.47777186,4.29238004 5.00967121,4.77258706 L10,2.00018217 C10,0.8954305 10.8954305,0 12,0 C13.1045695,0 14,0.8954305 14,2 C14,3.1045695 13.1045695,4 12,4 C11.6357525,4 11.2942476,3.90262689 11.000096,3.73249112 L5.96349229,6.53060427 C5.98752356,6.68354107 6,6.84031352 6,7 C6,7.15980311 5.98750532,7.31668793 5.96343961,7.46973082 L10.9997747,10.2676947 C11.293999,10.097444 11.6356198,10 12,10 C13.1045695,10 14,10.8954305 14,12 C14,13.1045695 13.1045695,14 12,14 C10.8954912,14 10.0000985,13.104668 10,12.0001822 L5.00942135,9.22763849 L5.00942135,9.22763849 Z M3,8 C3.55228475,8 4,7.55228475 4,7 C4,6.44771525 3.55228475,6 3,6 C2.44771525,6 2,6.44771525 2,7 C2,7.55228475 2.44771525,8 3,8 Z" id="path-1"></path>
    </defs>
    <g id="icon-12" stroke="none" stroke-width="1" fill="none" fill-rule="evenodd">
        <g id="color/black" transform="translate(4.000000, 5.000000)">
            <mask id="mask-2" fill="white">
                <use xlink:href="#path-1"></use>
            </mask>
            <use id="Mask" fill="#000000" fill-rule="nonzero" xlink:href="#path-1"></use>
            <g mask="url(#mask-2)" fill="#000000" id="Rectangle">
                <g transform="translate(-4.000000, -5.000000)">
                    <rect x="0" y="0" width="24" height="24"></rect>
                </g>
            </g>
        </g>
    </g>
</svg>