<?xml version="1.0" encoding="UTF-8"?>
<svg width="24px" height="24px" viewBox="0 0 24 24" version="1.1" xmlns="http://www.w3.org/2000/svg" xmlns:xlink="http://www.w3.org/1999/xlink">
    <!-- Generator: Sketch 56.3 (81716) - https://sketch.com -->
    <title>icon-4</title>
    <desc>Created with Sketch.</desc>
    <defs>
        <path d="M9,7.60356472 L9,4 C9,3.44771525 8.55228475,3 8,3 C7.44771525,3 7,3.44771525 7,4 L7,8 C7,8.38269963 7.21497694,8.7151887 7.53075776,8.88329418 C7.5762327,8.96886963 7.63501571,9.04922927 7.70710678,9.12132034 L9.12132034,10.5355339 C9.51184464,10.9260582 10.1450096,10.9260582 10.5355339,10.5355339 C10.9260582,10.1450096 10.9260582,9.51184464 10.5355339,9.12132034 L9.12132034,7.70710678 C9.08305738,7.66884382 9.04246512,7.6343298 9,7.60356472 Z M8,16 C3.581722,16 0,12.418278 0,8 C0,3.581722 3.581722,0 8,0 C12.418278,0 16,3.581722 16,8 C16,12.418278 12.418278,16 8,16 Z" id="path-1"></path>
    </defs>
    <g id="icon-4" stroke="none" stroke-width="1" fill="none" fill-rule="evenodd">
        <g id="color/black-copy" transform="translate(4.000000, 4.000000)">
            <mask id="mask-2" fill="white">
                <use xlink:href="#path-1"></use>
            </mask>
            <use id="Mask" fill="#000000" xlink:href="#path-1"></use>
            <g id="color/black" mask="url(#mask-2)" fill="#000000">
                <g transform="translate(-4.000000, -4.000000)" id="Rectangle">
                    <rect x="0" y="0" width="24" height="24"></rect>
                </g>
            </g>
        </g>
    </g>
</svg>