<?xml version="1.0" encoding="UTF-8"?>
<svg width="24px" height="24px" viewBox="0 0 24 24" version="1.1" xmlns="http://www.w3.org/2000/svg" xmlns:xlink="http://www.w3.org/1999/xlink">
    <!-- Generator: Sketch 56.3 (81716) - https://sketch.com -->
    <title>icon-7</title>
    <desc>Created with Sketch.</desc>
    <g id="icon-7" stroke="none" stroke-width="1" fill="none" fill-rule="evenodd">
        <path d="M12.8043269,6.35496612 L19.9726614,17.5057087 C20.2713136,17.9702787 20.1368105,18.5889926 19.6722405,18.8876447 C19.5109432,18.9913359 19.3232345,19.0464663 19.1314829,19.0464663 L4.7948139,19.0464663 C4.24252916,19.0464663 3.7948139,18.598751 3.7948139,18.0464663 C3.7948139,17.8547147 3.84994429,17.667006 3.95363543,17.5057087 L11.1219699,6.35496612 C11.4206221,5.89039608 12.039336,5.75589307 12.503906,6.05454524 C12.6244086,6.13201123 12.7268609,6.23446347 12.8043269,6.35496612 Z M10.9300003,8.89560191 L11.0821432,14.5599978 L12.6445334,14.5599978 L12.8025279,8.89560191 L10.9300003,8.89560191 Z M10.9300003,16.8962338 C10.9300003,17.5106569 11.3396157,17.8910141 11.9950004,17.8910141 C12.6562367,17.8910141 13.0600004,17.5106569 13.0600004,16.8962338 C13.0600004,16.2759591 12.6562367,15.8956019 11.9950004,15.8956019 C11.3396157,15.8956019 10.9300003,16.2759591 10.9300003,16.8962338 Z" id="Combined-Shape" fill="#000000"></path>
    </g>
</svg>