<?xml version="1.0" encoding="UTF-8"?>
<svg width="24px" height="24px" viewBox="0 0 24 24" version="1.1" xmlns="http://www.w3.org/2000/svg" xmlns:xlink="http://www.w3.org/1999/xlink">
    <!-- Generator: Sketch 56.3 (81716) - https://sketch.com -->
    <title>icon-25</title>
    <desc>Created with Sketch.</desc>
    <g id="icon-25" stroke="none" stroke-width="1" fill="none" fill-rule="evenodd">
        <path d="" id="Path-3" stroke="#979797"></path>
        <path d="M4,12 C4,11.4477153 4.44771525,11 5,11 C5.55228475,11 6,11.4477153 6,12 C6,15.3137085 8.6862915,18 12,18 C15.3137085,18 18,15.3137085 18,12 C18,9.02700371 15.8377133,6.55903653 13,6.08295844 L13,7.13148291 C13,7.68376766 12.5522847,8.13148291 12,8.13148291 C11.802575,8.13148291 11.6095673,8.07304488 11.4452998,7.9635332 L8.24807544,5.83205029 C7.78854675,5.52569784 7.66437288,4.90482849 7.97072534,4.4452998 C8.0439602,4.33544752 8.13822315,4.24118456 8.24807544,4.16794971 L11.4452998,2.0364668 C11.9048285,1.73011434 12.5256978,1.85428821 12.8320503,2.3138169 C12.941562,2.47808441 13,2.67109211 13,2.86851709 L13,4.06189375 C16.9463116,4.55399184 20,7.92038235 20,12 C20,16.418278 16.418278,20 12,20 C7.581722,20 4,16.418278 4,12 Z" id="Combined-Shape" fill="#000000" fill-rule="nonzero"></path>
    </g>
</svg>