<?xml version="1.0" encoding="UTF-8"?>
<svg width="24px" height="24px" viewBox="0 0 24 24" version="1.1" xmlns="http://www.w3.org/2000/svg" xmlns:xlink="http://www.w3.org/1999/xlink">
    <!-- Generator: Sketch 56.3 (81716) - https://sketch.com -->
    <title>icon-8</title>
    <desc>Created with Sketch.</desc>
    <defs>
        <path d="M10,15 L2,15 C0.8954305,15 1.3527075e-16,14.1045695 0,13 L0,8 C-1.3527075e-16,6.8954305 0.8954305,6 2,6 C4.209139,8.209139 7.790861,8.209139 10,6 C11.1045695,6 12,6.8954305 12,8 L12,13 C12,14.1045695 11.1045695,15 10,15 Z M6,6 C4.34314575,6 3,4.65685425 3,3 C3,1.34314575 4.34314575,0 6,0 C7.65685425,0 9,1.34314575 9,3 C9,4.65685425 7.65685425,6 6,6 Z" id="path-1"></path>
    </defs>
    <g id="icon-8" stroke="none" stroke-width="1" fill="none" fill-rule="evenodd">
        <g id="color/grey" transform="translate(6.000000, 4.000000)">
            <mask id="mask-2" fill="white">
                <use xlink:href="#path-1"></use>
            </mask>
            <use id="Mask" fill="#000000" xlink:href="#path-1"></use>
            <g id="color/black" mask="url(#mask-2)" fill="#000000">
                <g transform="translate(-6.000000, -4.000000)" id="Rectangle">
                    <rect x="0" y="0" width="24" height="24"></rect>
                </g>
            </g>
        </g>
    </g>
</svg>