<?xml version="1.0" encoding="UTF-8"?>
<svg width="24px" height="24px" viewBox="0 0 24 24" version="1.1" xmlns="http://www.w3.org/2000/svg" xmlns:xlink="http://www.w3.org/1999/xlink">
    <!-- Generator: Sketch 56.3 (81716) - https://sketch.com -->
    <title>icon-6</title>
    <desc>Created with Sketch.</desc>
    <defs>
        <path d="M8,16 C3.581722,16 0,12.418278 0,8 C0,3.581722 3.581722,0 8,0 C12.418278,0 16,3.581722 16,8 C16,12.418278 12.418278,16 8,16 Z M5,6.46679688 L6.58789062,6.46679688 C6.62304688,5.82226562 7.06835938,5.40625 7.7421875,5.40625 C8.41015625,5.40625 8.85546875,5.79296875 8.85546875,6.33789062 C8.85546875,6.8828125 8.62695312,7.1640625 7.87109375,7.61523438 C7.0625,8.08984375 6.74023438,8.6171875 6.81640625,9.5546875 L6.828125,9.87695312 L8.38085938,9.87695312 L8.38085938,9.56640625 C8.38085938,9.00390625 8.59765625,8.71679688 9.37695312,8.265625 C10.203125,7.77929688 10.6308594,7.1640625 10.6308594,6.28515625 C10.6308594,4.93164062 9.5234375,4 7.84765625,4 C6.04882812,4 5.02929688,5.0078125 5,6.46679688 Z M7.66601562,12.7070312 C8.32226562,12.7070312 8.7265625,12.3261719 8.7265625,11.7109375 C8.7265625,11.0898438 8.32226562,10.7089844 7.66601562,10.7089844 C7.00976562,10.7089844 6.59960938,11.0898438 6.59960938,11.7109375 C6.59960938,12.3261719 7.00976562,12.7070312 7.66601562,12.7070312 Z" id="path-1"></path>
    </defs>
    <g id="icon-6" stroke="none" stroke-width="1" fill="none" fill-rule="evenodd">
        <g id="color/white" transform="translate(4.000000, 4.000000)">
            <mask id="mask-2" fill="white">
                <use xlink:href="#path-1"></use>
            </mask>
            <use id="Mask" fill="#000000" xlink:href="#path-1"></use>
            <g id="color/black" mask="url(#mask-2)" fill="#000000">
                <g transform="translate(-4.000000, -4.000000)" id="Rectangle">
                    <rect x="0" y="0" width="24" height="24"></rect>
                </g>
            </g>
        </g>
    </g>
</svg>