<?xml version="1.0" encoding="UTF-8"?>
<svg width="24px" height="24px" viewBox="0 0 24 24" version="1.1" xmlns="http://www.w3.org/2000/svg" xmlns:xlink="http://www.w3.org/1999/xlink">
    <!-- Generator: Sketch 56.3 (81716) - https://sketch.com -->
    <title>icon-3</title>
    <desc>Created with Sketch.</desc>
    <defs>
        <path d="M5.92820323,1.76448636 L5.92820323,1 C5.92820323,0.44771525 6.37591848,0 6.92820323,0 L8.92820323,0 C9.48048798,0 9.92820323,0.44771525 9.92820323,1 L9.92820323,1.76448636 C9.92820323,2.12152405 10.1185611,2.45147656 10.4276509,2.63019262 L11.3271013,3.1502559 C11.6365856,3.32920012 12.0180552,3.3293218 12.3276536,3.15057504 L12.9903811,2.76794919 C13.4686737,2.49180682 14.0802641,2.65568197 14.3564065,3.1339746 L15.3564065,4.8660254 C15.6325488,5.34431803 15.4686737,5.95590843 14.9903811,6.23205081 L14.3983722,6.57379465 C14.0603936,6.76892674 13.8668048,7.1428428 13.902554,7.53146616 C13.9196535,7.71735196 13.9282032,7.87352991 13.9282032,8 C13.9282032,8.12646916 13.9196536,8.28264574 13.9025544,8.46852974 L13.9025692,8.46853111 C13.8668224,8.85713082 14.0603994,9.23102405 14.3983575,9.42614425 L14.9903811,9.76794919 C15.4686737,10.0440916 15.6325488,10.655682 15.3564065,11.1339746 L14.3564065,12.8660254 C14.0802641,13.344318 13.4686737,13.5081932 12.9903811,13.2320508 L12.3276536,12.849425 C12.0180552,12.6706782 11.6365856,12.6707999 11.3271013,12.8497441 L10.4276509,13.3698074 C10.1185611,13.5485234 9.92820323,13.878476 9.92820323,14.2355136 L9.92820323,15 C9.92820323,15.5522847 9.48048798,16 8.92820323,16 L6.92820323,16 C6.37591848,16 5.92820323,15.5522847 5.92820323,15 L5.92820323,14.2355136 C5.92820323,13.878476 5.73784536,13.5485234 5.4287556,13.3698074 L4.52930518,12.8497441 C4.21982081,12.6707999 3.83835128,12.6706782 3.52875281,12.849425 L2.8660254,13.2320508 C2.38773278,13.5081932 1.77614237,13.344318 1.5,12.8660254 L0.5,11.1339746 C0.223857625,10.655682 0.38773278,10.0440916 0.866025404,9.76794919 L1.45803422,9.42620535 C1.7960129,9.23107326 1.98960163,8.8571572 1.95385247,8.46853384 C1.93675298,8.28264804 1.92820323,8.12647009 1.92820323,8 C1.92820323,7.87353084 1.93675285,7.71735426 1.95385209,7.53147026 L1.95383724,7.53146889 C1.98958405,7.14286918 1.79600704,6.76897595 1.45804894,6.57385575 L0.866025404,6.23205081 C0.38773278,5.95590843 0.223857625,5.34431803 0.5,4.8660254 L1.5,3.1339746 C1.77614237,2.65568197 2.38773278,2.49180682 2.8660254,2.76794919 L3.52875281,3.15057504 C3.83835128,3.3293218 4.21982081,3.32920012 4.52930518,3.1502559 L5.4287556,2.63019262 C5.73784536,2.45147656 5.92820323,2.12152405 5.92820323,1.76448636 Z M8,12 C10.209139,12 12,10.209139 12,8 C12,5.790861 10.209139,4 8,4 C5.790861,4 4,5.790861 4,8 C4,10.209139 5.790861,12 8,12 Z" id="path-1"></path>
    </defs>
    <g id="icon-3" stroke="none" stroke-width="1" fill="none" fill-rule="evenodd">
        <g id="color/black" transform="translate(4.000000, 4.000000)">
            <mask id="mask-2" fill="white">
                <use xlink:href="#path-1"></use>
            </mask>
            <use id="Mask" fill="#000000" xlink:href="#path-1"></use>
            <g mask="url(#mask-2)" fill="#000000" id="Rectangle">
                <g transform="translate(-4.000000, -4.000000)">
                    <rect x="0" y="0" width="24" height="24"></rect>
                </g>
            </g>
        </g>
    </g>
</svg>