<?xml version="1.0" encoding="UTF-8"?>
<svg width="24px" height="24px" viewBox="0 0 24 24" version="1.1" xmlns="http://www.w3.org/2000/svg" xmlns:xlink="http://www.w3.org/1999/xlink">
    <!-- Generator: Sketch 56.3 (81716) - https://sketch.com -->
    <title>icon-11</title>
    <desc>Created with Sketch.</desc>
    <defs>
        <path d="M7,4.17157288 L4.46446609,6.70710678 C4.0739418,7.09763107 3.44077682,7.09763107 3.05025253,6.70710678 C2.65972824,6.31658249 2.65972824,5.68341751 3.05025253,5.29289322 L7.29289322,1.05025253 C7.68341751,0.65972824 8.31658249,0.65972824 8.70710678,1.05025253 L12.9497475,5.29289322 C13.3402718,5.68341751 13.3402718,6.31658249 12.9497475,6.70710678 C12.5592232,7.09763107 11.9260582,7.09763107 11.5355339,6.70710678 L9,4.17157288 L9,11 C9,11.5522847 8.55228475,12 8,12 C7.44771525,12 7,11.5522847 7,11 L7,4.17157288 L7,4.17157288 Z M14,14 L14,9 C14,8.44771525 14.4477153,8 15,8 C15.5522847,8 16,8.44771525 16,9 L16,15 C16,15.5522847 15.5522847,16 15,16 L1,16 C0.44771525,16 0,15.5522847 0,15 L0,9 C0,8.44771525 0.44771525,8 1,8 C1.55228475,8 2,8.44771525 2,9 L2,14 L14,14 Z" id="path-1"></path>
    </defs>
    <g id="icon-11" stroke="none" stroke-width="1" fill="none" fill-rule="evenodd">
        <g id="color/black" transform="translate(4.000000, 4.000000)">
            <mask id="mask-2" fill="white">
                <use xlink:href="#path-1"></use>
            </mask>
            <use id="Mask" fill="#000000" xlink:href="#path-1"></use>
            <g mask="url(#mask-2)" fill="#000000" id="Rectangle">
                <g transform="translate(-4.000000, -4.000000)">
                    <rect x="0" y="0" width="24" height="24"></rect>
                </g>
            </g>
        </g>
    </g>
</svg>