<?xml version="1.0" encoding="UTF-8"?>
<svg width="48px" height="48px" viewBox="0 0 48 48" version="1.1" xmlns="http://www.w3.org/2000/svg" xmlns:xlink="http://www.w3.org/1999/xlink">
    <!-- Generator: Sketch 51.3 (57544) - http://www.bohemiancoding.com/sketch -->
    <title>Group</title>
    <desc>Created with Sketch.</desc>
    <defs></defs>
    <g id="Standalone_Al1c" stroke="none" stroke-width="1" fill="none" fill-rule="evenodd">
        <g id="Control-Soluton-lipid-about" transform="translate(-156.000000, -256.000000)">
            <g id="Group" transform="translate(156.000000, 256.000000)">
                <g id="background/blue" fill="#42A5F5">
                    <rect id="Rectangle-4" x="0" y="0" width="48" height="48" rx="5"></rect>
                </g>
                <g id="icon/test/lipid" transform="translate(8.000000, 8.000000)" fill="#FFFFFF">
                    <path d="M16,11.2859548 L20.7140452,16 C20.9743947,16.2603495 20.9743947,16.6824595 20.7140452,16.942809 L12.2287638,25.4280904 C11.9684143,25.6884399 11.5463043,25.6884399 11.2859548,25.4280904 L6.57190958,20.7140452 C6.31156006,20.4536957 6.31156006,20.0315857 6.57190958,19.7712362 L15.057191,11.2859548 C15.3175405,11.0256053 15.7396505,11.0256053 16,11.2859548 Z M12.7001684,19.2998316 C13.2208674,19.8205307 14.0650874,19.8205307 14.5857864,19.2998316 C15.1064855,18.7791326 15.1064855,17.9349126 14.5857864,17.4142136 C14.0650874,16.8935145 13.2208674,16.8935145 12.7001684,17.4142136 C12.1794693,17.9349126 12.1794693,18.7791326 12.7001684,19.2998316 Z" id="Combined-Shape"></path>
                    <path d="M16.942809,11.2859548 L22.8353656,5.39339828 C23.2258898,5.00287399 23.8590548,5.00287399 24.2495791,5.39339828 L24.4852814,5.62910054 C23.9371771,6.17720481 23.9149608,7.0436411 24.4356598,7.56434015 C24.9563589,8.08503921 25.8227952,8.06282289 26.3708995,7.51471863 L26.6066017,7.75042089 C26.997126,8.14094518 26.997126,8.77411016 26.6066017,9.16463445 L20.7140452,15.057191 L16.942809,11.2859548 Z M6.57190958,21.6568542 L10.3431458,25.4280904 L9.16463445,26.6066017 C8.77411016,26.997126 8.14094518,26.997126 7.75042089,26.6066017 L5.39339828,24.2495791 C5.00287399,23.8590548 5.00287399,23.2258898 5.39339828,22.8353656 L6.57190958,21.6568542 Z" id="Combined-Shape"></path>
                </g>
            </g>
        </g>
    </g>
</svg>