<?xml version="1.0" encoding="UTF-8"?>
<svg width="24px" height="24px" viewBox="0 0 24 24" version="1.1" xmlns="http://www.w3.org/2000/svg" xmlns:xlink="http://www.w3.org/1999/xlink">
    <!-- Generator: Sketch 58 (84663) - https://sketch.com -->
    <title>alert</title>
    <desc>Created with Sketch.</desc>
    <g id="alert" stroke="none" stroke-width="1" fill="none" fill-rule="evenodd">
        <path d="M12.7090921,5.15894333 C12.8295947,5.23640932 12.932047,5.33886156 13.009513,5.45936421 L20.1778475,16.6101068 C20.4764996,17.0746768 20.3419966,17.6933907 19.8774266,17.9920428 C19.7161293,18.095734 19.5284206,18.1508644 19.336669,18.1508644 L5,18.1508644 C4.44771525,18.1508644 4,17.7031491 4,17.1508644 C4,16.9591127 4.05513038,16.7714041 4.15882152,16.6101068 L11.327156,5.45936421 C11.6258082,4.99479417 12.244522,4.86029116 12.7090921,5.15894333 Z M12.2001865,15 C11.5448018,15 11.1351864,15.3803572 11.1351864,16.0006319 C11.1351864,16.615055 11.5448018,16.9954122 12.2001865,16.9954122 C12.8614228,16.9954122 13.2651865,16.615055 13.2651865,16.0006319 C13.2651865,15.3803572 12.8614228,15 12.2001865,15 Z M13.007714,8 L11.1351864,8 L11.2873293,13.6643959 L12.8497195,13.6643959 L13.007714,8 Z" id="Combined-Shape" fill="#FFFFFF"></path>
    </g>
</svg>