<?xml version="1.0" encoding="UTF-8"?>
<svg width="416px" height="384px" viewBox="0 0 416 384" version="1.1" xmlns="http://www.w3.org/2000/svg" xmlns:xlink="http://www.w3.org/1999/xlink">
    <!-- Generator: Sketch 51.3 (57544) - http://www.bohemiancoding.com/sketch -->
    <title>Fill 1</title>
    <desc>Created with Sketch.</desc>
    <defs></defs>
    <g id="Admin" stroke="none" stroke-width="1" fill="none" fill-rule="evenodd">
        <path d="M190.7236,144.3906 C190.9756,145.9106 191.1706,147.2876 191.3186,148.5886 L191.3316,148.7336 L191.3826,149.2026 C191.7936,152.7066 191.9996,156.3146 191.9996,159.9696 C191.9996,165.1216 192.1996,170.1806 192.5936,175.0056 C192.7516,177.1406 192.9586,179.3556 193.2246,181.7496 L193.2696,182.1216 C197.5176,219.0016 212.3466,253.6626 236.1616,282.3806 C227.5146,293.6176 216.3496,302.9486 203.7866,309.4246 C190.1476,316.4416 175.4136,319.9996 159.9996,319.9996 C107.0656,319.9996 63.9996,276.9346 63.9996,223.9996 C63.9996,201.0636 72.2576,178.8426 87.2506,161.4306 C102.0266,144.2856 122.3466,132.8686 144.4996,129.2596 L144.8286,129.2596 L145.1796,129.1486 C146.6726,128.9036 148.2246,128.7006 149.9116,128.5296 C153.2156,128.1776 156.6026,127.9996 159.9996,127.9996 C160.1876,127.9996 160.3696,127.9986 160.5476,127.9936 C160.7306,127.9996 160.8806,127.9996 160.9996,127.9996 L186.5176,127.9996 L186.5216,128.0106 C188.3446,133.1686 189.7206,138.4546 190.6106,143.7216 L190.6106,144.0386 L190.7236,144.3906 Z M287.9996,111.9996 L160.9996,111.9996 L160.9706,111.9996 L160.8616,111.9906 L160.6796,111.9906 L160.4996,111.9906 L160.3826,111.9906 L160.2656,111.9966 C160.2156,111.9996 160.1676,112.0006 160.1196,112.0006 C160.0796,112.0006 160.0406,111.9996 159.9996,111.9996 C156.0896,111.9996 152.1446,112.2056 148.2736,112.6116 C146.1406,112.8316 144.1716,113.0946 142.2586,113.4146 C116.2916,117.5526 92.4416,130.8996 75.1316,150.9916 C57.6356,171.3006 47.9996,197.2286 47.9996,223.9996 C47.9996,285.7566 98.2436,335.9996 159.9996,335.9996 C177.9346,335.9996 195.0826,331.8676 210.9686,323.7146 C226.1126,315.9446 239.5196,304.6136 249.7436,290.9466 L249.9186,290.7106 C250.7776,289.5566 251.5996,288.4006 252.3736,287.2596 C253.2196,286.0486 254.0156,284.8396 254.7396,283.6636 C255.0776,283.1326 255.4076,282.5966 255.7366,282.0586 L256.1046,281.4586 L256.1996,281.3056 L256.2436,281.2176 C256.6436,280.5446 257.0416,279.8706 257.4216,279.1986 C257.9166,278.3296 258.4146,277.4276 258.8976,276.5266 C259.2906,275.7866 259.6896,275.0146 260.1176,274.1596 C260.4746,273.4646 260.8266,272.7496 261.1436,272.0686 C261.2856,271.7906 261.4236,271.4946 261.5556,271.1886 C261.6746,270.9376 261.7936,270.6796 261.9046,270.4296 L261.9726,270.2826 C262.0706,270.0736 262.1656,269.8666 262.2566,269.6556 C262.3816,269.3886 262.4996,269.1156 262.6166,268.8396 C262.9376,268.1226 263.2526,267.3876 263.5526,266.6526 C263.7736,266.1226 263.9946,265.5746 264.2076,265.0236 L264.2346,264.9836 L264.3956,264.5536 L264.4276,264.4676 C264.4836,264.3226 264.5366,264.1796 264.5856,264.0336 C264.7776,263.5426 264.9596,263.0516 265.1426,262.5606 C265.2276,262.3386 265.3166,262.0956 265.3966,261.8596 C265.4816,261.6326 265.5626,261.4006 265.6406,261.1716 L265.6906,261.0276 L265.7966,260.7246 L265.9026,260.4266 C265.9296,260.3556 265.9546,260.2846 265.9806,260.2126 L265.9736,260.2266 L266.0496,260.0356 L266.0676,259.9726 L266.0756,259.9546 L266.1306,259.7876 C266.3576,259.0956 266.5846,258.4036 266.8016,257.7006 C267.0896,256.8006 267.4006,255.7676 267.7656,254.4886 C267.9036,254.0036 268.0366,253.5186 268.1616,253.0336 C268.2486,252.7266 268.3286,252.4126 268.4086,252.1036 L268.4536,251.9266 C268.6876,251.0306 268.8946,250.1936 269.0806,249.3916 L269.0836,249.3856 L269.2016,248.8946 C269.5686,247.2736 269.8906,245.6876 270.1586,244.1796 C270.2206,243.8496 270.2896,243.4826 270.3516,243.1036 C270.3736,242.9996 270.3996,242.8696 270.4206,242.7206 C270.4296,242.6736 270.4376,242.6246 270.4456,242.5776 L270.5616,241.8626 L270.5986,241.6266 L270.6276,241.4446 C270.6936,241.0206 270.7576,240.6036 270.8156,240.1776 L270.8356,240.0366 L270.8696,239.8036 C270.9246,239.4516 270.9936,239.0056 271.0426,238.5356 C271.1076,238.0386 271.1706,237.5436 271.2276,237.0486 C271.2426,236.9596 271.2526,236.8706 271.2616,236.7806 C271.2916,236.5526 271.3166,236.3186 271.3406,236.0846 L271.3716,235.7916 C271.3816,235.7136 271.3886,235.6386 271.3956,235.5646 C271.4566,235.0286 271.5096,234.4726 271.5536,233.9106 C271.5766,233.7036 271.5966,233.4946 271.6106,233.2796 C271.6696,232.5926 271.7206,231.8966 271.7606,231.2086 C271.7906,230.8096 271.8126,230.4086 271.8326,229.9986 C271.8536,229.7006 271.8656,229.3926 271.8756,229.0756 C271.9066,228.5526 271.9276,228.0306 271.9386,227.5076 C271.9686,226.6956 271.9796,225.8826 271.9896,225.0596 L271.9996,224.0496 L272.0096,223.4876 L272.0096,223.4536 L272.0096,223.4196 L272.0096,223.4096 L272.0096,223.4086 L272.1246,222.2566 L271.9556,221.9186 C271.9326,221.3806 271.8996,220.8426 271.8586,220.3096 C271.8256,219.9036 271.7926,219.5086 271.7506,219.1146 C271.7356,218.9456 271.7186,218.7756 271.7006,218.6066 L271.7006,218.4536 L271.6456,218.1726 L271.6246,218.0096 C271.6076,217.8636 271.5906,217.7186 271.5706,217.5746 C271.5296,217.2806 271.4856,216.9686 271.4326,216.6556 C271.3886,216.3436 271.3356,216.0326 271.2826,215.7206 L271.2556,215.5626 C271.2066,215.2856 271.1626,215.0476 271.1086,214.8126 C271.1006,214.7676 271.0916,214.7226 271.0826,214.6786 L271.0586,214.5496 L271.0356,214.4246 L271.0126,214.2986 L270.9876,214.1956 C270.9596,214.0456 270.9306,213.8976 270.8946,213.7476 C270.8796,213.6826 270.8656,213.6196 270.8496,213.5586 C270.8086,213.3456 270.7576,213.1316 270.6996,212.9196 C270.6766,212.8166 270.6536,212.7146 270.6296,212.6136 L270.6296,212.1506 L270.3836,211.6556 L270.2886,211.3066 L270.1506,210.8086 C270.1456,210.7896 270.1406,210.7706 270.1356,210.7516 L270.1326,210.7376 L270.0916,210.5906 C270.0426,210.4146 269.9896,210.2396 269.9376,210.0666 L269.8596,209.8086 L269.8516,209.7816 L269.8426,209.7536 C269.7106,209.3236 269.5686,208.9036 269.4246,208.4846 C269.3216,208.1756 269.1986,207.8366 269.0746,207.5076 C268.9616,207.1936 268.8496,206.8846 268.7286,206.5846 C266.7226,201.4326 263.8466,196.6896 260.1716,192.4726 C260.1636,192.4416 260.1576,192.4116 260.1516,192.3806 L260.0796,192.0506 L260.0316,191.9286 C259.9466,191.6216 259.8686,191.3166 259.7976,191.0106 L259.7866,190.9606 L259.7736,190.9116 C259.6986,190.6216 259.6266,190.3466 259.5656,190.0806 L259.5536,190.0306 L259.5406,189.9816 C259.4946,189.8076 259.4576,189.6326 259.4196,189.4576 L259.4076,189.3986 L259.3906,189.3306 L259.3456,189.1486 L259.3086,189.0006 C259.2496,188.7506 259.1916,188.5026 259.1426,188.2556 L259.1236,188.1616 L259.1006,188.0706 C259.0046,187.6876 258.9276,187.3066 258.8496,186.9246 L258.8496,185.7166 L258.5286,185.3886 C258.4336,184.9146 258.3396,184.4376 258.2496,183.9636 C258.1266,183.3126 258.0026,182.6576 257.8986,182.0106 L257.8796,181.8946 L257.8616,181.8126 L257.8576,181.7776 L257.8276,181.6196 C257.7826,181.3886 257.7446,181.1516 257.7076,180.9186 L257.6896,180.8036 C257.6026,180.2656 257.5156,179.7246 257.4386,179.1946 C257.3696,178.7346 257.3036,178.2886 257.2456,177.8526 L257.2386,177.7906 L257.2286,177.7296 C257.1966,177.5296 257.1716,177.3296 257.1466,177.1296 L257.0936,176.7246 C256.8696,175.0416 256.6766,173.2806 256.5036,171.3456 C256.3496,169.6606 256.2326,167.9526 256.1566,166.2596 L256.1536,166.1966 L256.1486,166.1336 C256.1316,165.9246 256.1246,165.7246 256.1176,165.5156 C256.0386,163.7316 255.9996,161.9326 255.9996,160.1496 L255.9996,159.4696 C255.9996,158.8786 255.9906,158.2866 255.9806,157.6956 C255.9796,157.3786 255.9786,157.0526 255.9676,156.7376 C255.9636,156.6206 255.9616,156.5006 255.9586,156.3806 C255.9566,156.2256 255.9536,156.0726 255.9496,155.9216 C255.9376,155.2246 255.9086,154.5176 255.8766,153.8206 C255.8636,153.3416 255.8396,152.8676 255.8176,152.3936 L255.7866,151.7436 C255.7676,151.3446 255.7446,150.9526 255.7216,150.5636 C277.9336,160.1616 294.7016,179.3136 301.1526,202.8376 C301.7336,204.9296 302.2326,207.0896 302.6396,209.2756 L302.6396,210.5666 L302.9246,210.8536 C303.6156,215.0216 303.9726,219.2786 303.9906,223.5266 L303.9906,223.6426 L303.9976,223.7596 C304.0016,223.8376 303.9996,223.9206 303.9996,223.9996 C303.9996,228.6546 303.7746,233.3096 303.3286,237.8386 L303.3106,238.0346 L303.3106,238.0536 C303.0986,240.3056 302.8506,242.3816 302.5526,244.3946 L302.5096,244.6856 L302.5096,244.7056 C301.6416,250.7426 300.3636,256.8096 298.7066,262.7446 C298.2646,264.3106 297.8876,265.5796 297.5266,266.7246 C297.1146,268.0476 296.6836,269.3606 296.2406,270.6426 C296.0016,271.3366 295.7676,272.0106 295.5236,272.6956 C295.2096,273.5566 294.8806,274.4386 294.5416,275.3106 C294.2416,276.1036 293.9416,276.8756 293.6326,277.6386 C293.4096,278.2066 293.1906,278.7376 292.9636,279.2776 C292.0876,281.3786 291.1496,283.4806 290.1686,285.5386 L290.1566,285.5666 L290.1436,285.5926 C289.8526,286.2296 289.5256,286.9056 289.1726,287.6006 L289.1586,287.6286 L289.1446,287.6576 C289.0176,287.9166 288.8866,288.1766 288.7546,288.4386 L288.5426,288.8606 C288.4996,288.9466 288.4516,289.0346 288.4036,289.1236 L288.2946,289.3246 L288.2676,289.3916 L288.2346,289.4486 L288.1456,289.6376 L288.0886,289.7466 C288.0426,289.8346 287.9956,289.9226 287.9526,290.0116 C287.3766,291.1266 286.7026,292.3876 285.9136,293.8236 C285.4436,294.6616 284.9446,295.5316 284.4366,296.4026 C284.3436,296.5566 284.2296,296.7526 284.1156,296.9506 C284.0246,297.1086 283.9336,297.2666 283.8396,297.4216 C282.7686,299.2246 281.6506,301.0086 280.5106,302.7386 C279.8516,303.7516 279.2016,304.7206 278.5636,305.6396 L278.0156,306.4326 L277.7866,306.7546 C277.2606,307.4926 276.7396,308.2246 276.2026,308.9556 C275.5166,309.8946 274.7496,310.9056 273.8576,312.0476 C260.6596,329.0796 243.5546,343.1646 224.3826,352.7896 C204.2816,362.8826 182.6196,367.9996 159.9996,367.9996 C80.5976,367.9996 15.9996,303.4026 15.9996,223.9996 C15.9996,189.5516 28.4076,156.1926 50.9356,130.0696 C73.2316,104.2166 103.9366,87.0636 137.3946,81.7706 L137.5476,81.7476 C138.5936,81.5906 139.6306,81.4336 140.6766,81.2946 C142.8516,80.9946 145.0576,80.7496 147.2536,80.5656 L147.2816,80.5636 L147.3086,80.5606 C148.3316,80.4606 149.4386,80.3746 150.8956,80.2816 L151.6096,80.2376 L152.3296,80.1916 L152.3616,80.1896 L152.3886,80.1896 L152.4876,80.1846 L153.2676,80.1466 L154.0926,80.1176 L154.2276,80.1126 C154.6586,80.0946 155.0756,80.0776 155.4926,80.0696 L155.5136,80.0686 L155.5716,80.0666 C156.1566,80.0486 156.7326,80.0296 157.2896,80.0296 L157.3356,80.0296 L157.3816,80.0286 C157.9106,80.0166 158.4336,80.0086 158.9496,80.0036 L159.9596,80.0096 L160.3206,80.0096 L160.6296,80.0096 L160.9596,80.0096 L161.1256,80.0096 L161.2456,79.9996 L287.9996,79.9996 C296.2406,79.9996 303.0846,86.1766 303.9206,94.3666 C303.9746,94.8806 303.9996,95.4116 303.9996,95.9996 C303.9996,104.8226 296.8226,111.9996 287.9996,111.9996 Z M383.9996,287.9996 C359.0536,287.9996 334.8976,280.7986 314.0866,267.1656 C314.0956,267.1376 314.1036,267.1086 314.1116,267.0796 C315.9876,260.3556 317.4266,253.4906 318.3906,246.6696 L318.4296,246.3966 C318.7416,244.2756 319.0136,241.9686 319.2616,239.3586 L319.2686,239.2866 L319.2736,239.2166 L319.2786,239.1206 C319.7576,234.1556 319.9996,229.0686 319.9996,223.9996 C319.9996,223.7506 319.9986,223.4816 319.9896,223.2186 C319.9536,217.7416 319.4386,212.2126 318.4556,206.7866 L318.0046,204.3206 L317.7806,203.0936 L317.6796,202.9926 C317.3506,201.5246 316.9806,200.0436 316.5766,198.5766 C308.1726,167.9596 285.2016,143.5136 255.1286,133.1866 L253.6666,132.6846 C253.6026,132.3076 253.5386,131.9456 253.4796,131.6046 C253.2676,130.4276 253.0366,129.2236 252.7846,127.9996 L287.9996,127.9996 C305.6446,127.9996 319.9996,113.6446 319.9996,95.9996 C319.9996,95.9116 319.9996,95.7626 319.9876,95.5766 C319.9726,94.6556 319.9226,93.7696 319.8396,92.9426 C319.1036,85.0786 315.4616,77.7726 309.5886,72.3946 C303.6766,66.9816 296.0096,63.9996 287.9996,63.9996 L223.9906,63.9996 L221.2306,60.5306 C206.5576,42.0816 187.6806,26.8396 166.6406,16.4526 C144.5296,5.5356 120.7616,-0.0004 95.9996,-0.0004 C78.3556,-0.0004 63.9996,14.3546 63.9996,31.9996 C63.9996,49.6446 78.3556,63.9996 95.9996,63.9996 C105.3996,63.9996 114.8316,65.4136 123.8396,68.1396 C91.5796,75.6236 62.1216,93.1686 39.9786,118.2956 C14.1986,147.5316 -0.0004,185.0726 -0.0004,223.9996 C-0.0004,312.2246 71.7756,383.9996 159.9996,383.9996 C185.1306,383.9996 209.2086,378.3086 231.5646,367.0846 C251.9596,356.8476 270.2476,342.0656 284.6236,324.2236 C314.5576,342.4106 348.8416,351.9996 383.9996,351.9996 C401.6446,351.9996 415.9996,337.6446 415.9996,319.9996 C415.9996,302.3556 401.6446,287.9996 383.9996,287.9996 Z" id="Fill-1" fill="#0000FF"></path>
    </g>
</svg>