<?xml version="1.0" encoding="UTF-8"?>
<svg width="1120px" height="957px" viewBox="0 0 1120 957" version="1.1" xmlns="http://www.w3.org/2000/svg" xmlns:xlink="http://www.w3.org/1999/xlink">
    <!-- Generator: Sketch 56.3 (81716) - https://sketch.com -->
    <title>Home layout</title>
    <desc>Created with Sketch.</desc>
    <defs>
        <path d="M11.8564065,3.52897272 L11.8564065,2 C11.8564065,0.8954305 12.751837,0 13.8564065,0 L17.8564065,0 C18.960976,0 19.8564065,0.8954305 19.8564065,2 L19.8564065,3.52897272 C19.8564065,4.24304809 20.2371222,4.90295312 20.8553017,5.26038524 L22.6542026,6.30051179 C23.2731713,6.65840024 24.0361104,6.6586436 24.6553073,6.30115008 L25.9807621,5.53589838 C26.9373474,4.98361364 28.1605282,5.31136395 28.7128129,6.26794919 L30.7128129,9.73205081 C31.2650977,10.6886361 30.9373474,11.9118169 29.9807621,12.4641016 L28.7967445,13.1475893 C28.1207871,13.5378535 27.7336097,14.2856856 27.805108,15.0629323 C27.839307,15.4347039 27.8564065,15.7470598 27.8564065,16 C27.8564065,16.2529383 27.8393072,16.5652915 27.8051087,16.9370595 L27.8051384,16.9370622 C27.7336448,17.7142616 28.1207988,18.4620481 28.796715,18.8522885 L29.9807621,19.5358984 C30.9373474,20.0881831 31.2650977,21.3113639 30.7128129,22.2679492 L28.7128129,25.7320508 C28.1605282,26.6886361 26.9373474,27.0163864 25.9807621,26.4641016 L24.6553073,25.6988499 C24.0361104,25.3413564 23.2731713,25.3415998 22.6542026,25.6994882 L20.8553017,26.7396148 C20.2371222,27.0970469 19.8564065,27.7569519 19.8564065,28.4710273 L19.8564065,30 C19.8564065,31.1045695 18.960976,32 17.8564065,32 L13.8564065,32 C12.751837,32 11.8564065,31.1045695 11.8564065,30 L11.8564065,28.4710273 C11.8564065,27.7569519 11.4756907,27.0970469 10.8575112,26.7396148 L9.05861036,25.6994882 C8.43964162,25.3415998 7.67670256,25.3413564 7.05750563,25.6988499 L5.73205081,26.4641016 C4.77546556,27.0163864 3.55228475,26.6886361 3,25.7320508 L1,22.2679492 C0.44771525,21.3113639 0.775465561,20.0881831 1.73205081,19.5358984 L2.91606845,18.8524107 C3.59202581,18.4621465 3.97920326,17.7143144 3.90770493,16.9370677 C3.87350595,16.5652961 3.85640646,16.2529402 3.85640646,16 C3.85640646,15.7470617 3.8735057,15.4347085 3.90770418,15.0629405 L3.90767448,15.0629378 C3.97916809,14.2857384 3.59201407,13.5379519 2.91609787,13.1477115 L1.73205081,12.4641016 C0.775465561,11.9118169 0.44771525,10.6886361 1,9.73205081 L3,6.26794919 C3.55228475,5.31136395 4.77546556,4.98361364 5.73205081,5.53589838 L7.05750563,6.30115008 C7.67670256,6.6586436 8.43964162,6.65840024 9.05861036,6.30051179 L10.8575112,5.26038524 C11.4756907,4.90295312 11.8564065,4.24304809 11.8564065,3.52897272 Z M16,24 C20.418278,24 24,20.418278 24,16 C24,11.581722 20.418278,8 16,8 C11.581722,8 8,11.581722 8,16 C8,20.418278 11.581722,24 16,24 Z" id="path-1"></path>
        <path d="M11.8564065,3.52897272 L11.8564065,2 C11.8564065,0.8954305 12.751837,0 13.8564065,0 L17.8564065,0 C18.960976,0 19.8564065,0.8954305 19.8564065,2 L19.8564065,3.52897272 C19.8564065,4.24304809 20.2371222,4.90295312 20.8553017,5.26038524 L22.6542026,6.30051179 C23.2731713,6.65840024 24.0361104,6.6586436 24.6553073,6.30115008 L25.9807621,5.53589838 C26.9373474,4.98361364 28.1605282,5.31136395 28.7128129,6.26794919 L30.7128129,9.73205081 C31.2650977,10.6886361 30.9373474,11.9118169 29.9807621,12.4641016 L28.7967445,13.1475893 C28.1207871,13.5378535 27.7336097,14.2856856 27.805108,15.0629323 C27.839307,15.4347039 27.8564065,15.7470598 27.8564065,16 C27.8564065,16.2529383 27.8393072,16.5652915 27.8051087,16.9370595 L27.8051384,16.9370622 C27.7336448,17.7142616 28.1207988,18.4620481 28.796715,18.8522885 L29.9807621,19.5358984 C30.9373474,20.0881831 31.2650977,21.3113639 30.7128129,22.2679492 L28.7128129,25.7320508 C28.1605282,26.6886361 26.9373474,27.0163864 25.9807621,26.4641016 L24.6553073,25.6988499 C24.0361104,25.3413564 23.2731713,25.3415998 22.6542026,25.6994882 L20.8553017,26.7396148 C20.2371222,27.0970469 19.8564065,27.7569519 19.8564065,28.4710273 L19.8564065,30 C19.8564065,31.1045695 18.960976,32 17.8564065,32 L13.8564065,32 C12.751837,32 11.8564065,31.1045695 11.8564065,30 L11.8564065,28.4710273 C11.8564065,27.7569519 11.4756907,27.0970469 10.8575112,26.7396148 L9.05861036,25.6994882 C8.43964162,25.3415998 7.67670256,25.3413564 7.05750563,25.6988499 L5.73205081,26.4641016 C4.77546556,27.0163864 3.55228475,26.6886361 3,25.7320508 L1,22.2679492 C0.44771525,21.3113639 0.775465561,20.0881831 1.73205081,19.5358984 L2.91606845,18.8524107 C3.59202581,18.4621465 3.97920326,17.7143144 3.90770493,16.9370677 C3.87350595,16.5652961 3.85640646,16.2529402 3.85640646,16 C3.85640646,15.7470617 3.8735057,15.4347085 3.90770418,15.0629405 L3.90767448,15.0629378 C3.97916809,14.2857384 3.59201407,13.5379519 2.91609787,13.1477115 L1.73205081,12.4641016 C0.775465561,11.9118169 0.44771525,10.6886361 1,9.73205081 L3,6.26794919 C3.55228475,5.31136395 4.77546556,4.98361364 5.73205081,5.53589838 L7.05750563,6.30115008 C7.67670256,6.6586436 8.43964162,6.65840024 9.05861036,6.30051179 L10.8575112,5.26038524 C11.4756907,4.90295312 11.8564065,4.24304809 11.8564065,3.52897272 Z M16,24 C20.418278,24 24,20.418278 24,16 C24,11.581722 20.418278,8 16,8 C11.581722,8 8,11.581722 8,16 C8,20.418278 11.581722,24 16,24 Z" id="path-3"></path>
        <path d="M20,22 C20,20.8954305 19.1045695,20 18,20 L14,20 C12.8954305,20 12,20.8954305 12,22 L12,31 C12,31.5522847 11.5522847,32 11,32 L2,32 C0.8954305,32 0,31.1045695 0,30 L0,16.8284271 C0,16.2979941 0.210713681,15.7892863 0.585786438,15.4142136 L14.5857864,1.41421356 C15.366835,0.633164979 16.633165,0.633164979 17.4142136,1.41421356 L31.4142136,15.4142136 C31.7892863,15.7892863 32,16.2979941 32,16.8284271 L32,30 C32,31.1045695 31.1045695,32 30,32 L21,32 C20.4477153,32 20,31.5522847 20,31 L20,22 Z" id="path-5"></path>
        <path d="M26,4 L28,4 C30.209139,4 32,5.790861 32,8 L32,28 C32,30.209139 30.209139,32 28,32 L4,32 C1.790861,32 0,30.209139 0,28 L0,8 C0,5.790861 1.790861,4 4,4 L6,4 L6,2 C6,0.8954305 6.8954305,2.02906125e-16 8,0 C9.1045695,-2.02906125e-16 10,0.8954305 10,2 L10,4 L22,4 L22,2 C22,0.8954305 22.8954305,2.02906125e-16 24,0 C25.1045695,-2.02906125e-16 26,0.8954305 26,2 L26,4 Z M4,8 L4,28 L28,28 L28,8 L4,8 Z M7,20 L11,20 C11.5522847,20 12,20.4477153 12,21 L12,25 C12,25.5522847 11.5522847,26 11,26 L7,26 C6.44771525,26 6,25.5522847 6,25 L6,21 C6,20.4477153 6.44771525,20 7,20 Z M15,20 L25,20 C25.5522847,20 26,20.4477153 26,21 L26,25 C26,25.5522847 25.5522847,26 25,26 L15,26 C14.4477153,26 14,25.5522847 14,25 L14,21 C14,20.4477153 14.4477153,20 15,20 Z M7,10 L25,10 C25.5522847,10 26,10.4477153 26,11 L26,17 C26,17.5522847 25.5522847,18 25,18 L7,18 C6.44771525,18 6,17.5522847 6,17 L6,11 C6,10.4477153 6.44771525,10 7,10 Z" id="path-7"></path>
        <path d="M26,4 L28,4 C30.209139,4 32,5.790861 32,8 L32,28 C32,30.209139 30.209139,32 28,32 L4,32 C1.790861,32 0,30.209139 0,28 L0,8 C0,5.790861 1.790861,4 4,4 L6,4 L6,2 C6,0.8954305 6.8954305,2.02906125e-16 8,0 C9.1045695,-2.02906125e-16 10,0.8954305 10,2 L10,4 L22,4 L22,2 C22,0.8954305 22.8954305,2.02906125e-16 24,0 C25.1045695,-2.02906125e-16 26,0.8954305 26,2 L26,4 Z M4,8 L4,28 L28,28 L28,8 L4,8 Z M7,20 L11,20 C11.5522847,20 12,20.4477153 12,21 L12,25 C12,25.5522847 11.5522847,26 11,26 L7,26 C6.44771525,26 6,25.5522847 6,25 L6,21 C6,20.4477153 6.44771525,20 7,20 Z M15,20 L25,20 C25.5522847,20 26,20.4477153 26,21 L26,25 C26,25.5522847 25.5522847,26 25,26 L15,26 C14.4477153,26 14,25.5522847 14,25 L14,21 C14,20.4477153 14.4477153,20 15,20 Z M7,10 L25,10 C25.5522847,10 26,10.4477153 26,11 L26,17 C26,17.5522847 25.5522847,18 25,18 L7,18 C6.44771525,18 6,17.5522847 6,17 L6,11 C6,10.4477153 6.44771525,10 7,10 Z" id="path-9"></path>
        <path d="M28.3422958,22.0866182 C30.0871387,23.6289423 30.5658854,26.235248 29.3564065,28.330127 C27.9756946,30.7215901 24.9177426,31.5409659 22.5262794,30.160254 L3.47372056,19.160254 C1.08225744,17.7795422 0.262881665,14.7215901 1.64359354,12.330127 C2.85307249,10.235248 5.34957283,9.34670195 7.5576861,10.0866182 L9.60769515,6.53589838 C12.9214037,0.796386903 20.2604885,-1.17011496 26,2.14359354 C31.7395115,5.45730204 33.7060133,12.7963869 30.3923048,18.5358984 L28.3422958,22.0866182 Z M8.53589838,24.3923048 L15.4641016,28.3923048 C14.3595321,30.3054753 11.9131705,30.960976 10,29.8564065 C8.08682951,28.751837 7.43132889,26.3054753 8.53589838,24.3923048 Z M26.1961524,13.8038476 C27.1527377,14.3561323 28.3759185,14.028382 28.9282032,13.0717968 C29.480488,12.1152115 29.1527377,10.8920307 28.1961524,10.339746 C27.2395672,9.78746121 26.0163864,10.1152115 25.4641016,11.0717968 C24.9118169,12.028382 25.2395672,13.2515628 26.1961524,13.8038476 Z" id="path-11"></path>
        <path d="M18,15.1715729 L18,7 C18,6.44771525 17.5522847,6 17,6 L15,6 C14.4477153,6 14,6.44771525 14,7 L14,17 C14,17.5522847 14.4477153,18 15,18 L15.1715729,18 L18.9497475,21.7781746 C19.3402718,22.1686989 19.9734367,22.1686989 20.363961,21.7781746 L21.7781746,20.363961 C22.1686989,19.9734367 22.1686989,19.3402718 21.7781746,18.9497475 L18,15.1715729 Z M16,32 C7.163444,32 0,24.836556 0,16 C0,7.163444 7.163444,0 16,0 C24.836556,0 32,7.163444 32,16 C32,24.836556 24.836556,32 16,32 Z" id="path-13"></path>
        <path d="M18,15.1715729 L18,7 C18,6.44771525 17.5522847,6 17,6 L15,6 C14.4477153,6 14,6.44771525 14,7 L14,17 C14,17.5522847 14.4477153,18 15,18 L15.1715729,18 L18.9497475,21.7781746 C19.3402718,22.1686989 19.9734367,22.1686989 20.363961,21.7781746 L21.7781746,20.363961 C22.1686989,19.9734367 22.1686989,19.3402718 21.7781746,18.9497475 L18,15.1715729 Z M16,32 C7.163444,32 0,24.836556 0,16 C0,7.163444 7.163444,0 16,0 C24.836556,0 32,7.163444 32,16 C32,24.836556 24.836556,32 16,32 Z" id="path-15"></path>
    </defs>
    <g id="Home-layout" stroke="none" stroke-width="1" fill="none" fill-rule="evenodd">
        <rect id="Rectangle" stroke="#979797" fill="#E7E7E7" x="98.5" y="157.5" width="359" height="639"></rect>
        <rect id="Rectangle-Copy-5" stroke="#979797" fill="#E7E7E7" x="658.5" y="157.5" width="359" height="639"></rect>
        <circle id="Oval" fill="#FCBA43" cx="278.5" cy="377.5" r="119.5"></circle>
        <path d="M274.319029,709 L281.680971,709 C289.012371,709 292.509198,709.928256 295.768457,711.671327 C299.027716,713.414398 301.585602,715.972284 303.328673,719.231543 C305.071744,722.490802 306,725.987629 306,733.319029 L306,740.680971 C306,748.012371 305.071744,751.509198 303.328673,754.768457 C301.585602,758.027716 299.027716,760.585602 295.768457,762.328673 C292.509198,764.071744 289.012371,765 281.680971,765 L274.319029,765 C266.987629,765 263.490802,764.071744 260.231543,762.328673 C256.972284,760.585602 254.414398,758.027716 252.671327,754.768457 C250.928256,751.509198 250,748.012371 250,740.680971 L250,733.319029 C250,725.987629 250.928256,722.490802 252.671327,719.231543 C254.414398,715.972284 256.972284,713.414398 260.231543,711.671327 C263.490802,709.928256 266.987629,709 274.319029,709 Z" id="Rectangle" fill="#FFFFFF"></path>
        <rect id="Rectangle-Copy-4" fill="#50C9CE" x="138" y="593" width="280" height="56" rx="28"></rect>
        <path d="M386.319029,709 L393.680971,709 C401.012371,709 404.509198,709.928256 407.768457,711.671327 C411.027716,713.414398 413.585602,715.972284 415.328673,719.231543 C417.071744,722.490802 418,725.987629 418,733.319029 L418,740.680971 C418,748.012371 417.071744,751.509198 415.328673,754.768457 C413.585602,758.027716 411.027716,760.585602 407.768457,762.328673 C404.509198,764.071744 401.012371,765 393.680971,765 L386.319029,765 C378.987629,765 375.490802,764.071744 372.231543,762.328673 C368.972284,760.585602 366.414398,758.027716 364.671327,754.768457 C362.928256,751.509198 362,748.012371 362,740.680971 L362,733.319029 C362,725.987629 362.928256,722.490802 364.671327,719.231543 C366.414398,715.972284 368.972284,713.414398 372.231543,711.671327 C375.490802,709.928256 378.987629,709 386.319029,709 Z" id="Rectangle-Copy-2" fill="#FFFFFF"></path>
        <path d="M394.319029,181 L401.680971,181 C409.012371,181 412.509198,181.928256 415.768457,183.671327 C419.027716,185.414398 421.585602,187.972284 423.328673,191.231543 C425.071744,194.490802 426,197.987629 426,205.319029 L426,212.680971 C426,220.012371 425.071744,223.509198 423.328673,226.768457 C421.585602,230.027716 419.027716,232.585602 415.768457,234.328673 C412.509198,236.071744 409.012371,237 401.680971,237 L394.319029,237 C386.987629,237 383.490802,236.071744 380.231543,234.328673 C376.972284,232.585602 374.414398,230.027716 372.671327,226.768457 C370.928256,223.509198 370,220.012371 370,212.680971 L370,205.319029 C370,197.987629 370.928256,194.490802 372.671327,191.231543 C374.414398,187.972284 376.972284,185.414398 380.231543,183.671327 C383.490802,181.928256 386.987629,181 394.319029,181 Z" id="Rectangle-Copy-3" fill="#FFFFFF"></path>
        <path d="M162.319029,709 L169.680971,709 C177.012371,709 180.509198,709.928256 183.768457,711.671327 C187.027716,713.414398 189.585602,715.972284 191.328673,719.231543 C193.071744,722.490802 194,725.987629 194,733.319029 L194,740.680971 C194,748.012371 193.071744,751.509198 191.328673,754.768457 C189.585602,758.027716 187.027716,760.585602 183.768457,762.328673 C180.509198,764.071744 177.012371,765 169.680971,765 L162.319029,765 C154.987629,765 151.490802,764.071744 148.231543,762.328673 C144.972284,760.585602 142.414398,758.027716 140.671327,754.768457 C138.928256,751.509198 138,748.012371 138,740.680971 L138,733.319029 C138,725.987629 138.928256,722.490802 140.671327,719.231543 C142.414398,715.972284 144.972284,713.414398 148.231543,711.671327 C151.490802,709.928256 154.987629,709 162.319029,709 Z" id="Rectangle-Copy" fill="#FFFFFF"></path>
        <rect id="Rectangle" stroke="#003249" stroke-width="2" fill="#FFFFFF" x="683" y="256" width="310" height="104" rx="8"></rect>
        <rect id="Rectangle-Copy-6" fill="#FCBA43" x="682" y="377" width="312" height="106" rx="8"></rect>
        <rect id="Rectangle-Copy-7" fill="#FCBA43" x="682" y="499" width="312" height="106" rx="8"></rect>
        <rect id="Rectangle" fill="#003249" x="658" y="729" width="360" height="1"></rect>
        <rect id="Rectangle" fill="#000000" opacity="0.177060082" x="658" y="729" width="360" height="68"></rect>
        <g id="color/black" transform="translate(382.000000, 193.000000)">
            <mask id="mask-2" fill="white">
                <use xlink:href="#path-1"></use>
            </mask>
            <use id="Mask" fill="#000000" xlink:href="#path-1"></use>
            <g mask="url(#mask-2)" fill="#000000" id="Rectangle">
                <g transform="translate(-8.000000, -8.000000)">
                    <rect x="0" y="0" width="48" height="48"></rect>
                </g>
            </g>
        </g>
        <g id="color/black-copy-3" transform="translate(962.000000, 749.000000)">
            <mask id="mask-4" fill="white">
                <use xlink:href="#path-3"></use>
            </mask>
            <use id="Mask" fill="#000000" xlink:href="#path-3"></use>
            <g id="color/black" mask="url(#mask-4)" fill="#000000">
                <g transform="translate(-8.000000, -8.000000)" id="Rectangle">
                    <rect x="0" y="0" width="48" height="48"></rect>
                </g>
            </g>
        </g>
        <g id="color/theme1" transform="translate(682.000000, 749.000000)">
            <mask id="mask-6" fill="white">
                <use xlink:href="#path-5"></use>
            </mask>
            <use id="Mask" fill="#000000" xlink:href="#path-5"></use>
            <g id="color/black" mask="url(#mask-6)" fill="#000000">
                <g transform="translate(-8.000000, -8.000000)" id="Rectangle">
                    <rect x="0" y="0" width="48" height="48"></rect>
                </g>
            </g>
        </g>
        <circle id="Oval" stroke="#FFFFFF" fill="#50C9CE" cx="838" cy="729" r="36"></circle>
        <g id="color/theme1" transform="translate(262.000000, 721.000000)">
            <mask id="mask-8" fill="white">
                <use xlink:href="#path-7"></use>
            </mask>
            <use id="Mask" fill="#191919" fill-rule="nonzero" xlink:href="#path-7"></use>
            <g id="color/black" mask="url(#mask-8)" fill="#000000">
                <g transform="translate(-8.000000, -8.000000)" id="Rectangle">
                    <rect x="0" y="0" width="48" height="48"></rect>
                </g>
            </g>
        </g>
        <g id="color/theme1-copy" transform="translate(898.000000, 749.000000)">
            <mask id="mask-10" fill="white">
                <use xlink:href="#path-9"></use>
            </mask>
            <use id="Mask" fill="#191919" fill-rule="nonzero" xlink:href="#path-9"></use>
            <g id="color/black" mask="url(#mask-10)" fill="#000000">
                <g transform="translate(-8.000000, -8.000000)" id="Rectangle">
                    <rect x="0" y="0" width="48" height="48"></rect>
                </g>
            </g>
        </g>
        <g id="color/black" transform="translate(373.000000, 721.000000)">
            <mask id="mask-12" fill="white">
                <use xlink:href="#path-11"></use>
            </mask>
            <use id="Mask" fill="#000000" xlink:href="#path-11"></use>
            <g mask="url(#mask-12)" fill="#000000" id="Rectangle">
                <g transform="translate(-6.000000, -8.000000)">
                    <rect x="0" y="0" width="48" height="48"></rect>
                </g>
            </g>
        </g>
        <g id="color/black-copy" transform="translate(150.000000, 721.000000)">
            <mask id="mask-14" fill="white">
                <use xlink:href="#path-13"></use>
            </mask>
            <use id="Mask" fill="#000000" xlink:href="#path-13"></use>
            <g id="color/black" mask="url(#mask-14)" fill="#000000">
                <g transform="translate(-8.000000, -8.000000)" id="Rectangle">
                    <rect x="0" y="0" width="48" height="48"></rect>
                </g>
            </g>
        </g>
        <g id="color/black-copy-2" transform="translate(746.000000, 749.000000)">
            <mask id="mask-16" fill="white">
                <use xlink:href="#path-15"></use>
            </mask>
            <use id="Mask" fill="#000000" xlink:href="#path-15"></use>
            <g id="color/black" mask="url(#mask-16)" fill="#000000">
                <g transform="translate(-8.000000, -8.000000)" id="Rectangle">
                    <rect x="0" y="0" width="48" height="48"></rect>
                </g>
            </g>
        </g>
        <text id="Date" font-family="Roboto-Regular, Roboto" font-size="24" font-weight="normal" fill="#000000">
            <tspan x="253.003906" y="228">Date</tspan>
        </text>
        <text id="23" font-family="Roboto-Regular, Roboto" font-size="56" font-weight="normal" fill="#000000">
            <tspan x="246.972656" y="415">23</tspan>
        </text>
        <text id="23-copy" font-family="Roboto-Regular, Roboto" font-size="56" font-weight="normal" fill="#000000">
            <tspan x="741.972656" y="459">23</tspan>
        </text>
        <text id="12" font-family="Roboto-Regular, Roboto" font-size="56" font-weight="normal" fill="#000000">
            <tspan x="741.972656" y="576">12</tspan>
        </text>
        <text id="Next-fertile-window" font-family="Roboto-Regular, Roboto" font-size="18" font-weight="normal" fill="#000000">
            <tspan x="234.088867" y="318">Next fertile </tspan>
            <tspan x="247.263672" y="342">window</tspan>
        </text>
        <text id="Next-fertile-window-Copy" font-family="Roboto-Regular, Roboto" font-size="18" font-weight="normal" fill="#000000">
            <tspan x="860" y="428">Next fertile </tspan>
            <tspan x="860" y="452">window</tspan>
        </text>
        <text id="Current-Date" font-family="Roboto-Regular, Roboto" font-size="18" font-weight="normal" fill="#000000">
            <tspan x="732" y="303">Current</tspan>
            <tspan x="732" y="327">Date</tspan>
        </text>
        <text id="Next-period-day" font-family="Roboto-Regular, Roboto" font-size="18" font-weight="normal" fill="#000000">
            <tspan x="860" y="548">Next period</tspan>
            <tspan x="860" y="572">day</tspan>
        </text>
        <g id="Group-Copy-12" transform="translate(182.000000, 195.000000)">
            <circle id="Oval" stroke="#003249" fill="#FFFFFF" cx="22" cy="22" r="22"></circle>
            <text id="1" font-family="Roboto-Regular, Roboto" font-size="24" font-weight="normal" fill="#000000">
                <tspan x="15.2441406" y="33">1</tspan>
            </text>
        </g>
        <g id="Group-Copy-14" transform="translate(658.000000, 282.000000)">
            <circle id="Oval" stroke="#003249" fill="#FFFFFF" cx="22" cy="22" r="22"></circle>
            <text id="1" font-family="Roboto-Regular, Roboto" font-size="24" font-weight="normal" fill="#000000">
                <tspan x="15.2441406" y="33">1</tspan>
            </text>
        </g>
        <g id="Group-Copy-13" transform="translate(128.000000, 355.000000)">
            <circle id="Oval" stroke="#003249" fill="#FFFFFF" cx="22" cy="22" r="22"></circle>
            <text id="2" font-family="Roboto-Regular, Roboto" font-size="24" font-weight="normal" fill="#000000">
                <tspan x="15.2441406" y="33">2</tspan>
            </text>
        </g>
        <g id="Group-Copy-15" transform="translate(660.000000, 408.000000)">
            <circle id="Oval" stroke="#003249" fill="#FFFFFF" cx="22" cy="22" r="22"></circle>
            <text id="2" font-family="Roboto-Regular, Roboto" font-size="24" font-weight="normal" fill="#000000">
                <tspan x="15.2441406" y="33">2</tspan>
            </text>
        </g>
        <g id="Group-Copy-16" transform="translate(660.000000, 525.000000)">
            <circle id="Oval" stroke="#003249" fill="#FFFFFF" cx="22" cy="22" r="22"></circle>
            <text id="2" font-family="Roboto-Regular, Roboto" font-size="24" font-weight="normal" fill="#000000">
                <tspan x="15.2441406" y="33">2</tspan>
            </text>
        </g>
        <g id="number-badge" transform="translate(116.000000, 599.000000)">
            <g id="Group-Copy-14">
                <circle id="Oval" stroke="#003249" fill="#FFFFFF" cx="22" cy="22" r="22"></circle>
                <text id="2" font-family="Roboto-Regular, Roboto" font-size="24" font-weight="normal" fill="#000000">
                    <tspan x="15.2441406" y="33">3</tspan>
                </text>
            </g>
        </g>
        <g id="number-badge" transform="translate(116.000000, 685.000000)">
            <g id="Group-Copy-14">
                <circle id="Oval" stroke="#003249" fill="#FFFFFF" cx="22" cy="22" r="22"></circle>
                <text id="2" font-family="Roboto-Regular, Roboto" font-size="24" font-weight="normal" fill="#000000">
                    <tspan x="15.2441406" y="33">4</tspan>
                </text>
            </g>
        </g>
        <g id="number-badge" transform="translate(740.000000, 809.000000)">
            <g id="Group-Copy-14">
                <circle id="Oval" stroke="#003249" fill="#FFFFFF" cx="22" cy="22" r="22"></circle>
                <text id="2" font-family="Roboto-Regular, Roboto" font-size="24" font-weight="normal" fill="#000000">
                    <tspan x="15.2441406" y="33">4</tspan>
                </text>
            </g>
        </g>
        <g id="number-badge" transform="translate(226.000000, 685.000000)">
            <g id="Group-Copy-14">
                <circle id="Oval" stroke="#003249" fill="#FFFFFF" cx="22" cy="22" r="22"></circle>
                <text id="2" font-family="PingFangTC-Regular, PingFang TC" font-size="24" font-weight="normal" fill="#000000">
                    <tspan x="10" y="33">５</tspan>
                </text>
            </g>
        </g>
        <g id="number-badge" transform="translate(892.000000, 809.000000)">
            <g id="Group-Copy-14">
                <circle id="Oval" stroke="#003249" fill="#FFFFFF" cx="22" cy="22" r="22"></circle>
                <text id="2" font-family="PingFangTC-Regular, PingFang TC" font-size="24" font-weight="normal" fill="#000000">
                    <tspan x="10" y="33">５</tspan>
                </text>
            </g>
        </g>
        <g id="number-badge" transform="translate(816.000000, 707.000000)">
            <g id="Group-Copy-14">
                <circle id="Oval" stroke="#003249" fill="#FFFFFF" cx="22" cy="22" r="22"></circle>
                <text id="2" font-family="Roboto-Regular, Roboto" font-size="24" font-weight="normal" fill="#000000">
                    <tspan x="15.2441406" y="33">3</tspan>
                </text>
            </g>
        </g>
        <g id="number-badge" transform="translate(338.000000, 685.000000)">
            <g id="Group-Copy-14">
                <circle id="Oval" stroke="#003249" fill="#FFFFFF" cx="22" cy="22" r="22"></circle>
                <text id="2" font-family="PingFangTC-Regular, PingFang TC" font-size="24" font-weight="normal" fill="#000000">
                    <tspan x="10" y="33">６</tspan>
                </text>
            </g>
        </g>
        <g id="number-badge" transform="translate(407.000000, 149.000000)">
            <g id="Group-Copy-14">
                <circle id="Oval" stroke="#003249" fill="#FFFFFF" cx="22" cy="22" r="22"></circle>
                <text id="2" font-family="PingFangTC-Regular, PingFang TC" font-size="24" font-weight="normal" fill="#000000">
                    <tspan x="10" y="33">７</tspan>
                </text>
            </g>
        </g>
        <g id="number-badge" transform="translate(956.000000, 809.000000)">
            <g id="Group-Copy-14">
                <circle id="Oval" stroke="#003249" fill="#FFFFFF" cx="22" cy="22" r="22"></circle>
                <text id="2" font-family="PingFangTC-Regular, PingFang TC" font-size="24" font-weight="normal" fill="#000000">
                    <tspan x="10" y="33">７</tspan>
                </text>
            </g>
        </g>
        <text id="Previous" font-family="Roboto-Bold, Roboto" font-size="36" font-weight="bold" fill="#000000">
            <tspan x="207.34375" y="88">Previous</tspan>
        </text>
        <text id="Redesigned" font-family="Roboto-Bold, Roboto" font-size="36" font-weight="bold" fill="#000000">
            <tspan x="743.288086" y="88">Redesigned</tspan>
        </text>
    </g>
</svg>